<svg width="450" height="450" viewBox="-35 -25 550 550" xmlns="http://www.w3.org/2000/svg"><g transform="translate(225,225)"><path d="M8.082668874372531e-15,-132A132,132,0,0,1,52.21956319602776,-121.23166756098038L0,0Z" fill="#1b9e77" stroke="white" style="stroke-width: 2px; opacity: 0.7;"></path><path d="M52.21956319602776,-121.23166756098038A132,132,0,0,1,83.73991350960121,-102.03737984388127L0,0Z" fill="#d95f02" stroke="white" style="stroke-width: 2px; opacity: 0.7;"></path><path d="M83.73991350960121,-102.03737984388127A132,132,0,0,1,118.11297345927632,-58.934925982886305L0,0Z" fill="#7570b3" stroke="white" style="stroke-width: 2px; opacity: 0.7;"></path><path d="M118.11297345927632,-58.934925982886305A132,132,0,0,1,123.96892198514047,-45.33989834397685L0,0Z" fill="#e7298a" stroke="white" style="stroke-width: 2px; opacity: 0.7;"></path><path d="M123.96892198514047,-45.33989834397685A132,132,0,0,1,129.8120825187184,-23.933725830999347L0,0Z" fill="#66a61e" stroke="white" style="stroke-width: 2px; opacity: 0.7;"></path><path d="M129.8120825187184,-23.933725830999347A132,132,0,0,1,131.9870180322639,-1.851234979910224L0,0Z" fill="#66a61e" stroke="white" style="stroke-width: 2px; opacity: 0.7;"></path><path d="M131.9870180322639,-1.851234979910224A132,132,0,0,1,-18.452324818685952,130.7039085444108L0,0Z" fill="#e6ab02" stroke="white" style="stroke-width: 2px; opacity: 0.7;"></path><path d="M-18.452324818685952,130.7039085444108A132,132,0,0,1,-2.424800662311759e-14,-132L0,0Z" fill="#a6761d" stroke="white" style="stroke-width: 2px; opacity: 0.7;"></path><polyline stroke="black" style="fill: none;" stroke-width="1" points="13.3295718327268,-64.63994519456352,29.991536623635298,-145.43987668776793,156.75,-145.43987668776793"></polyline><polyline stroke="black" style="fill: none;" stroke-width="1" points="34.32692091041233,-56.370759271188604,77.23557204842776,-126.83420836017437,156.75,-126.83420836017437"></polyline><polyline stroke="black" style="fill: none;" stroke-width="1" points="51.600877842889965,-41.15032692267641,116.10197514650243,-92.58823557602192,156.75,-92.58823557602192"></polyline><polyline stroke="black" style="fill: none;" stroke-width="1" points="60.61583378049019,-26.109781598013875,136.38562600610294,-58.74700859553121,156.75,-58.74700859553121"></polyline><polyline stroke="black" style="fill: none;" stroke-width="1" points="63.67054974075681,-17.37990493960807,143.25873691670282,-39.10478611411816,156.75,-39.10478611411816"></polyline><polyline stroke="black" style="fill: none;" stroke-width="1" points="65.682191960365,-6.469131261750992,147.78493191082126,-14.555545338939734,156.75,-14.555545338939734"></polyline><polyline stroke="black" style="fill: none;" stroke-width="1" points="43.632694620730376,49.51957148576799,98.17356289664335,111.41903584297799,156.75,111.41903584297799"></polyline><polyline stroke="black" style="fill: none;" stroke-width="1" points="-65.83778923219384,-4.624446887706828,-148.13502577243614,-10.405005497340362,-156.75,-10.405005497340362"></polyline><text transform="translate(163.35,-145.43987668776793)" style="text-anchor: start;">MacOS</text><text transform="translate(163.35,-126.83420836017437)" style="text-anchor: start;">ios</text><text transform="translate(163.35,-92.58823557602192)" style="text-anchor: start;">Windows</text><text transform="translate(163.35,-58.74700859553121)" style="text-anchor: start;">Linux</text><text transform="translate(163.35,-39.10478611411816)" style="text-anchor: start;">Android</text><text transform="translate(163.35,-14.555545338939734)" style="text-anchor: start;">iPadOS</text><text transform="translate(163.35,111.41903584297799)" style="text-anchor: start;">KaliLinux</text><text transform="translate(-163.35,-10.405005497340362)" style="text-anchor: end;">ArchLinux</text></g></svg>